<?xml version="1.0" encoding="UTF-8" standalone="no"?>
<svg
   xmlns:dc="http://purl.org/dc/elements/1.1/"
   xmlns:cc="http://creativecommons.org/ns#"
   xmlns:rdf="http://www.w3.org/1999/02/22-rdf-syntax-ns#"
   xmlns:svg="http://www.w3.org/2000/svg"
   xmlns="http://www.w3.org/2000/svg"
   viewBox="0 0 135.86 137.72"
   height="137.72"
   width="135.86"
   version="1.1"
   id="SvgjsSvg1000">
  <metadata
     id="metadata18">
    <rdf:RDF>
      <cc:Work
         rdf:about="">
        <dc:format>image/svg+xml</dc:format>
        <dc:type
           rdf:resource="http://purl.org/dc/dcmitype/StillImage" />
        <dc:title>nettie logo/home</dc:title>
        <dc:title>nettie logo/home</dc:title>
      </cc:Work>
    </rdf:RDF>
  </metadata>
  <title
     id="title3">nettie logo/home</title>
  <desc
     id="desc5">Created with Avocode.</desc>
  <defs
     id="SvgjsDefs1001" />
  <g
     transform="translate(-339.76404,-33.767164)"
     id="g5777">
    <path
       style="fill:#1b1b19;fill-opacity:1;fill-rule:evenodd;stroke:none;stroke-width:1px;stroke-linecap:round;stroke-linejoin:round;stroke-opacity:1"
       d="m 473.51734,112.27805 c -1.37918,18.66758 -6.12412,39.22743 0.24271,45.63081 6.36682,6.40338 -45.86907,6.36848 -45.86907,6.36848 1.28178,1.55547 34.54246,-9.41782 45.62636,-51.99929 z"
       id="path4146" />
    <path
       id="path4157"
       d="m 342.13369,112.27805 c 1.37918,18.66758 6.12412,39.22743 -0.24271,45.63081 -6.36683,6.40338 45.86907,6.36848 45.86907,6.36848 -1.28178,1.55547 -34.54246,-9.41782 -45.62636,-51.99929 z"
       style="fill:#1b1b19;fill-opacity:1;fill-rule:evenodd;stroke:none;stroke-width:1px;stroke-linecap:round;stroke-linejoin:round;stroke-opacity:1" />
    <path
       style="fill:#ffffff;fill-opacity:1"
       id="SvgjsPath1007-5"
       d="m 472.62404,102.62716 c 0,-36.379996 -29.06,-65.859996 -64.92,-65.859996 -35.86,0 -64.94,29.48 -64.94,65.859996 0,36.38001 29.08,65.86001 64.94,65.86001 35.86,0 64.92,-29.48 64.92,-65.86001" />
    <path
       style="fill:#ffffff;fill-opacity:0;stroke:#1b1a19;stroke-width:4;stroke-linecap:butt;stroke-linejoin:miter;stroke-miterlimit:50;stroke-dasharray:none;stroke-opacity:1"
       id="SvgjsPath1008-0"
       d="m 472.62404,102.62716 c 0,-36.379996 -29.06,-65.859996 -64.92,-65.859996 -35.86,0 -64.94,29.48 -64.94,65.859996 0,36.38001 29.08,65.86001 64.94,65.86001 35.86,0 64.92,-29.48 64.92,-65.86001 z"
       stroke-miterlimit="50" />
    <path
       id="SvgjsPath1009-6"
       d="m 384.98404,134.76717 c 0,8.97829 10.36,16.25237 23.12,16.25237 12.78,0 23.14,-7.27408 23.14,-16.25237 -16.2052,7.43264 -31.61374,6.66152 -46.26,0"
       style="fill:#0b0b0a;fill-opacity:1" />
    <path
       id="SvgjsPath1011-0"
       d="m 356.98404,93.047164 0,2 2.46,-1 z m 5.88,1.82 c -0.96,1.5 -1.62,4.66 -1.64,6.659996 -0.02,4.38 0.86,12.14001 6.82,15.08001 2.74,1.34 6.84,2.14 10.98,2.14 7.94,0 14.28,-2.74 16.98,-7.32 5.64,-9.62001 3.74,-15.340006 3.7,-15.400006 -0.4,-1.04 -2.76,-4.16 -17.3,-5.02 -2.54,-0.16 -4.7,-0.24 -6.6,-0.24 -8.58,0 -11.32,1.58 -12.94,4.1 z m 53.7,1.06 c -0.08,0.16 -1.98,5.879996 3.66,15.500006 2.7,4.58 9.04,7.32 16.98,7.32 4.14,0 8.24,-0.8 10.98,-2.14 5.96,-2.94 6.84,-10.70001 6.82,-15.08001 0,-1.999996 -0.68,-5.159996 -1.64,-6.659996 -1.62,-2.52 -4.36,-4.08 -12.94,-4.08 -1.9,0 -4.06,0.06 -6.6,0.22 -14.54,0.86 -16.9,3.98 -17.26,4.92 z m -61.76,0.44 c 0.02,-0.3 0,-0.84 -0.02,-1.44 -0.02,-0.92 -0.04,-1.94 0,-2.5 0.16,-2.7 2.52,-3.8 3.74,-4 7.56,-1.58 16.7,-2.04 26.34,-1.34 l 0.5,0.04 c 5.88,0.42 9.12,0.66 12.98,2.4 0.9,0.4 1.82,0.86 2.62,1.3 1.46,0.76 3.56,1.58 4.68,1.82 0.46,0.1 0.92,0.2 1.32,0.3 0.58,0.12 1.72,0.12 2.3,0 0.4,-0.1 0.88,-0.2 1.32,-0.3 1.12,-0.24 3.22,-1.06 4.68,-1.82 0.82,-0.44 1.74,-0.9 2.62,-1.3 3.86,-1.74 7.1,-1.98 12.98,-2.4 l 0.5,-0.04 c 9.64,-0.7 18.78,-0.24 26.38,1.34 1.18,0.2 3.54,1.3 3.7,4 0.04,0.56 0.02,1.58 0,2.5 -0.02,0.6 -0.02,1.14 -0.02,1.44 0.04,1.84 -0.62,2.56 -1.14,3.14 -0.18,0.18 -0.32,0.34 -0.44,0.539996 -0.24,0.42 -0.42,0.94 -0.52,1.56 -2.18,13.40001 -2.68,15.22001 -8.2,18.18001 -2.64,1.4 -8.08,2.36 -13.54,2.36 -4.24,0 -10.38,-0.58 -15.48,-3.28 -7.44,-3.94 -10.22,-17.52001 -10.32,-18.10001 -0.04,-0.18 -0.26,-1.799996 -3.48,-1.799996 l -0.2,0.02 c -3.4,0 -3.62,1.599996 -3.64,1.679996 -0.12,0.68 -2.9,14.28001 -10.34,18.20001 -5.1,2.7 -11.24,3.28 -15.48,3.28 -5.46,0 -10.9,-0.96 -13.54,-2.36 -5.52,-2.96 -6.02,-4.78 -8.2,-18.18001 -0.1,-0.62 -0.28,-1.14 -0.52,-1.56 -0.12,-0.199996 -0.26,-0.359996 -0.44,-0.539996 -0.52,-0.58 -1.18,-1.3 -1.14,-3.14 z"
       style="fill:#4fb9ac;fill-opacity:1" />
    <g
       id="g4198"
       transform="translate(183.33915,9.0667163)">
      <path
         style="fill:#0b0b0a;fill-opacity:1"
         d="m 206.77489,94.422078 c 0,4.30221 -2.68278,7.790492 -6,7.790492 -3.31722,0 -6,-3.488282 -6,-7.790492 0,-4.32547 2.68278,-7.81375 6,-7.81375 3.31722,0 6,3.48828 6,7.81375"
         id="SvgjsPath1010-5" />
      <path
         style="fill:#0b0b0a;fill-opacity:1"
         d="m 254.77489,94.422078 c 0,4.30215 -2.68278,7.790372 -6,7.790372 -3.31722,0 -6,-3.488222 -6,-7.790372 0,-4.3254 2.68278,-7.81363 6,-7.81363 3.31722,0 6,3.48823 6,7.81363"
         id="SvgjsPath1012-8" />
    </g>
    <path
       style="fill:#1b1b19;fill-opacity:1"
       id="SvgjsPath1013-1"
       d="m 343.02404,113.36717 c 0,0 18.42,-26.580006 47.84,-34.380006 0,0 14.88,-3.48 24.4,-16.1 0,0 4.5,-7.26 9.54,-8.6 0,0 11.12,16.66 29.64,27.4 0,0 8.4,7.84 16.9,11.44 0,0 -7.82,-54.02 -64.24,-56.36 0,0 -69.08,0.34 -64.08,76.600006" />
  </g>
</svg>
