<?xml version="1.0" encoding="utf-8"?>
<!-- Generator: Adobe Illustrator 17.0.0, SVG Export Plug-In . SVG Version: 6.00 Build 0)  -->
<!DOCTYPE svg PUBLIC "-//W3C//DTD SVG 1.1 Tiny//EN" "http://www.w3.org/Graphics/SVG/1.1/DTD/svg11-tiny.dtd">
<svg version="1.1" baseProfile="tiny" id="Layer_1" xmlns="http://www.w3.org/2000/svg" xmlns:xlink="http://www.w3.org/1999/xlink"
	 x="0px" y="0px" width="164.62px" height="105.38px" viewBox="0 0 164.62 105.38" overflow="scroll" xml:space="preserve">
<g>
	<g>
		<polygon fill-rule="evenodd" fill="#99A6AF" points="82.87,84.06 144.31,52.59 82.87,20.7 21.43,52.59 		"/>
	</g>
	<g>
		<polygon fill-rule="evenodd" fill="#99A6AF" points="122.9,65.8 82.35,84.26 41.79,65.8 82.35,46.97 		"/>
		<path fill="#99A6AF" d="M82.35,46.92l0.03,0.01l40.65,18.87l-0.09,0.04L82.35,84.31l-0.03-0.01L41.67,65.8l0.09-0.04L82.35,46.92z
			 M122.78,65.8L82.35,47.03L41.91,65.8l40.43,18.4L122.78,65.8z"/>
	</g>
	<path fill-rule="evenodd" fill="#0519D8" d="M82.33,23.44V7l73.32,38.05l-11.88,10.27L82.33,23.44L82.33,23.44z M82.33,49.86
		l40.55,21.05l10.44-9.03l-51-26.47V49.86L82.33,49.86z M82.33,98.38V60.33l27.5,14.27L82.33,98.38z"/>
	<path fill-rule="evenodd" fill="#000A95" d="M82.28,23.44V7L8.97,45.05l11.88,10.27L82.28,23.44L82.28,23.44z M82.28,49.86
		L41.73,70.9l-10.44-9.03l51-26.47V49.86L82.28,49.86z M82.28,98.38V60.33L54.78,74.6L82.28,98.38z"/>
</g>
<g id="Layer_2">
</g>
</svg>
